<svg width="530" height="500" viewBox="0 0 530 500" fill="none" xmlns="http://www.w3.org/2000/svg">
<path fill-rule="evenodd" clip-rule="evenodd" d="M438.38 409.4H472.22V419.852H438.38V409.4ZM438.38 388.374H487.211V398.825H438.38V388.374ZM438.38 367.471H487.211V377.922H438.38V367.471ZM417.217 332.27V468.633H508.126V332.27H417.217ZM312.801 332.27V468.633H403.711V332.27H312.801ZM291.899 311.688H529.289V489.549H438.38C438.363 492.326 437.249 494.984 435.279 496.943C433.309 498.901 430.644 500 427.866 500H392.999C390.272 499.932 387.678 498.802 385.772 496.849C383.866 494.897 382.798 492.277 382.795 489.549H291.899V311.688ZM298.392 233.766C327.445 233.873 356.325 238.248 384.106 246.753C418.662 255.869 451.242 271.278 480.21 292.208H272.418V441.558H105.442C116.477 435.896 125.312 426.721 130.555 415.48C135.798 404.24 137.15 391.574 134.397 379.48C131.695 369.298 126.129 360.105 118.36 352.991C110.59 345.877 100.943 341.141 90.5628 339.344V337.662C90.731 329.631 92.68 321.737 96.2691 314.55C99.8582 307.364 104.998 301.063 111.317 296.104C142.048 274.041 176.301 257.354 212.616 246.753C240.483 238.635 269.309 234.268 298.33 233.766H298.392ZM4.45269 170.229C5.26552 169.961 6.12335 169.856 6.97684 169.92C7.83033 169.985 8.66263 170.218 9.42588 170.605C10.1891 170.992 10.8683 171.527 11.4242 172.178C11.9802 172.828 12.402 173.583 12.6654 174.397L71.5028 351.886C82.2356 349.851 93.3395 352.056 102.481 358.038C111.622 364.019 118.088 373.311 120.521 383.961C122.953 394.611 121.163 405.789 115.525 415.146C109.888 424.503 100.843 431.31 90.2907 434.137C89.598 434.298 88.9054 434.434 88.2004 434.558C63.9085 440.656 50.4638 444.032 40.1979 403.117C31.3049 367.248 40.4576 360.198 59.1589 354.941L0.333949 178.442C0.0647029 177.632 -0.0423262 176.777 0.0189796 175.926C0.0802853 175.075 0.308724 174.244 0.691236 173.482C1.07375 172.719 1.60283 172.039 2.24825 171.481C2.89366 170.923 3.64275 170.497 4.45269 170.229ZM298.38 0C318.928 0 339.016 6.0934 356.101 17.5096C373.187 28.9259 386.504 45.1523 394.367 64.1368C402.231 83.1213 404.288 104.011 400.28 124.165C396.271 144.319 386.375 162.832 371.845 177.362C357.315 191.892 338.803 201.787 318.649 205.796C298.495 209.805 277.605 207.747 258.62 199.884C239.636 192.02 223.409 178.703 211.993 161.618C200.577 144.532 194.484 124.445 194.484 103.896C194.484 76.3411 205.43 49.9148 224.914 30.4305C244.398 10.9462 270.825 0 298.38 0Z" fill="black"/>
</svg>
