<svg width="423" height="500" viewBox="0 0 423 500" fill="none" xmlns="http://www.w3.org/2000/svg">
<path d="M376.298 77.8546H199.135V145.848C199.135 163.97 191.936 181.349 179.122 194.163C166.308 206.977 148.928 214.176 130.807 214.176C112.685 214.176 95.3053 206.977 82.4913 194.163C69.6772 181.349 62.4784 163.97 62.4784 145.848V129.628C62.4834 123.143 64.0068 116.75 66.9266 110.96C69.8464 105.17 74.0814 100.144 79.2925 96.2841C84.5036 92.4246 90.546 89.839 96.9359 88.7342C103.326 87.6295 109.886 88.0363 116.09 89.9221V77.8546H96.237V53.9792C96.237 47.8994 98.6522 42.0686 102.951 37.7696C107.25 33.4705 113.081 31.0553 119.161 31.0553C125.241 31.0553 131.071 33.4705 135.371 37.7696C139.67 42.0686 142.085 47.8994 142.085 53.9792V145.891C142.085 148.874 140.9 151.734 138.791 153.843C136.682 155.952 133.822 157.137 130.839 157.137C127.857 157.137 124.996 155.952 122.887 153.843C120.778 151.734 119.593 148.874 119.593 145.891V129.671C119.593 125.542 117.953 121.581 115.033 118.661C112.113 115.741 108.152 114.1 104.022 114.1C99.8928 114.1 95.9323 115.741 93.0122 118.661C90.0921 121.581 88.4516 125.542 88.4516 129.671V145.891C88.4516 157.133 92.9174 167.914 100.867 175.863C108.816 183.813 119.597 188.279 130.839 188.279C142.081 188.279 152.862 183.813 160.812 175.863C168.761 167.914 173.227 157.133 173.227 145.891V53.9792C173.227 39.6401 167.53 25.8882 157.391 15.7489C147.252 5.60965 133.5 -0.0865479 119.161 -0.0865479C104.822 -0.0865479 91.0699 5.60965 80.9306 15.7489C70.7913 25.8882 65.0952 39.6401 65.0952 53.9792V77.8546H45.8478C39.8347 77.8304 33.8761 78.9941 28.314 81.2787C22.7518 83.5634 17.6957 86.9241 13.4357 91.1679C9.17583 95.4118 5.79602 100.455 3.49035 106.009C1.18467 111.562 -0.00147638 117.516 -3.76525e-06 123.529V454.152C-0.00426915 460.174 1.17871 466.138 3.48126 471.702C5.78382 477.267 9.16077 482.323 13.419 486.581C17.6772 490.839 22.7331 494.216 28.2975 496.519C33.862 498.821 39.8257 500.004 45.8478 500H376.298C382.32 500.004 388.283 498.821 393.848 496.519C399.412 494.216 404.468 490.839 408.726 486.581C412.985 482.323 416.361 477.267 418.664 471.702C420.967 466.138 422.15 460.174 422.145 454.152V123.529C422.147 117.516 420.961 111.562 418.655 106.009C416.349 100.455 412.969 95.4118 408.71 91.1679C404.45 86.9241 399.394 83.5634 393.831 81.2787C388.269 78.9941 382.311 77.8304 376.298 77.8546ZM211.938 424.503H93.6527C89.523 424.503 85.5625 422.862 82.6424 419.942C79.7223 417.022 78.0817 413.061 78.0817 408.932C78.0817 404.802 79.7223 400.841 82.6424 397.921C85.5625 395.001 89.523 393.361 93.6527 393.361H211.938C216.067 393.361 220.028 395.001 222.948 397.921C225.868 400.841 227.509 404.802 227.509 408.932C227.509 413.061 225.868 417.022 222.948 419.942C220.028 422.862 216.067 424.503 211.938 424.503ZM328.493 351.903H93.6635C89.5338 351.903 85.5733 350.263 82.6532 347.342C79.7331 344.422 78.0926 340.462 78.0926 336.332C78.0926 332.202 79.7331 328.242 82.6532 325.322C85.5733 322.402 89.5338 320.761 93.6635 320.761H328.493C332.622 320.761 336.583 322.402 339.503 325.322C342.423 328.242 344.064 332.202 344.064 336.332C344.064 340.462 342.423 344.422 339.503 347.342C336.583 350.263 332.622 351.903 328.493 351.903ZM328.493 279.304H93.6635C89.5338 279.304 85.5733 277.663 82.6532 274.743C79.7331 271.823 78.0926 267.862 78.0926 263.733C78.0926 259.603 79.7331 255.642 82.6532 252.722C85.5733 249.802 89.5338 248.162 93.6635 248.162H328.493C332.622 248.162 336.583 249.802 339.503 252.722C342.423 255.642 344.064 259.603 344.064 263.733C344.064 267.862 342.423 271.823 339.503 274.743C336.583 277.663 332.622 279.304 328.493 279.304Z" fill="black"/>
</svg>
