<svg width="509" height="500" viewBox="0 0 509 500" fill="none" xmlns="http://www.w3.org/2000/svg">
<path d="M124.378 116.506H131.662C136.96 116.506 142.042 114.408 145.797 110.671C149.552 106.934 151.674 101.861 151.699 96.5636V20.5302C151.699 15.2161 149.588 10.1196 145.831 6.36197C142.073 2.60432 136.976 0.493286 131.662 0.493286H124.378C119.064 0.493286 113.967 2.60432 110.21 6.36197C106.452 10.1196 104.341 15.2161 104.341 20.5302V96.5636C104.369 101.86 106.492 106.931 110.246 110.668C114.001 114.404 119.081 116.503 124.378 116.506Z" fill="black"/>
<path d="M381.395 116.055H388.679C393.993 116.055 399.09 113.944 402.847 110.186C406.605 106.428 408.716 101.332 408.716 96.0178V20.0369C408.716 14.7228 406.605 9.62634 402.847 5.86869C399.09 2.11103 393.993 0 388.679 0L381.395 0C376.081 0 370.984 2.11103 367.226 5.86869C363.469 9.62634 361.358 14.7228 361.358 20.0369V96.0178C361.358 101.332 363.469 106.428 367.226 110.186C370.984 113.944 376.081 116.055 381.395 116.055Z" fill="black"/>
<path d="M476.436 41.218H425.006V101.266C425.006 121.292 408.716 132.345 388.679 132.345H381.405C371.774 132.333 362.541 128.503 355.731 121.692C348.92 114.882 345.09 105.649 345.078 96.0178V41.218H167.989V96.5636C167.978 106.195 164.147 115.428 157.337 122.238C150.527 129.048 141.293 132.879 131.662 132.89H124.389C114.758 132.879 105.524 129.048 98.714 122.238C91.9038 115.428 88.0729 106.195 88.0618 96.5636V41.218H32.5377C23.9142 41.2374 15.6493 44.6717 9.55152 50.7695C3.45371 56.8673 0.0194069 65.1321 0 73.7557L0 467.357C0.0194069 475.981 3.45371 484.246 9.55152 490.344C15.6493 496.441 23.9142 499.876 32.5377 499.895H476.436C485.06 499.876 493.325 496.441 499.423 490.344C505.52 484.246 508.955 475.981 508.974 467.357V73.7557C508.955 65.1321 505.52 56.8673 499.423 50.7695C493.325 44.6717 485.06 41.2374 476.436 41.218ZM476.436 467.431H32.5377V170.162H476.436V467.42V467.431Z" fill="black"/>
<path d="M271.323 269.874H329.807C330.92 269.874 331.988 269.432 332.775 268.645C333.563 267.857 334.005 266.789 334.005 265.676V215.032C334.005 213.919 333.563 212.851 332.775 212.064C331.988 211.276 330.92 210.834 329.807 210.834H271.323C270.209 210.834 269.141 211.276 268.354 212.064C267.567 212.851 267.124 213.919 267.124 215.032V265.676C267.124 266.789 267.567 267.857 268.354 268.645C269.141 269.432 270.209 269.874 271.323 269.874Z" fill="black"/>
<path d="M366.774 269.874H425.268C426.382 269.874 427.45 269.432 428.237 268.645C429.024 267.857 429.467 266.789 429.467 265.676V215.032C429.467 213.919 429.024 212.851 428.237 212.064C427.45 211.276 426.382 210.834 425.268 210.834H366.774C365.66 210.834 364.592 211.276 363.805 212.064C363.018 212.851 362.575 213.919 362.575 215.032V265.676C362.575 266.789 363.018 267.857 363.805 268.645C364.592 269.432 365.66 269.874 366.774 269.874Z" fill="black"/>
<path d="M80.4102 352.793H138.905C140.018 352.793 141.086 352.351 141.873 351.563C142.661 350.776 143.103 349.708 143.103 348.595V297.941C143.103 296.827 142.661 295.759 141.873 294.972C141.086 294.185 140.018 293.742 138.905 293.742H80.4102C79.2967 293.742 78.2288 294.185 77.4415 294.972C76.6541 295.759 76.2118 296.827 76.2118 297.941V348.595C76.2118 349.708 76.6541 350.776 77.4415 351.563C78.2288 352.351 79.2967 352.793 80.4102 352.793Z" fill="black"/>
<path d="M175.861 352.793H234.356C235.469 352.793 236.537 352.351 237.324 351.563C238.112 350.776 238.554 349.708 238.554 348.595V297.941C238.554 296.827 238.112 295.759 237.324 294.972C236.537 294.185 235.469 293.742 234.356 293.742H175.861C174.748 293.742 173.68 294.185 172.892 294.972C172.105 295.759 171.663 296.827 171.663 297.941V348.595C171.663 349.708 172.105 350.776 172.892 351.563C173.68 352.351 174.748 352.793 175.861 352.793Z" fill="black"/>
<path d="M271.323 352.793H329.817C330.931 352.793 331.999 352.351 332.786 351.563C333.573 350.776 334.016 349.708 334.016 348.595V297.941C334.016 296.827 333.573 295.759 332.786 294.972C331.999 294.185 330.931 293.742 329.817 293.742H271.323C270.209 293.742 269.141 294.185 268.354 294.972C267.567 295.759 267.124 296.827 267.124 297.941V348.595C267.124 349.708 267.567 350.776 268.354 351.563C269.141 352.351 270.209 352.793 271.323 352.793Z" fill="black"/>
<path d="M366.774 352.793H425.268C426.382 352.793 427.45 352.351 428.237 351.563C429.024 350.776 429.467 349.708 429.467 348.595V297.941C429.467 296.827 429.024 295.759 428.237 294.972C427.45 294.185 426.382 293.742 425.268 293.742H366.774C365.66 293.742 364.592 294.185 363.805 294.972C363.018 295.759 362.575 296.827 362.575 297.941V348.595C362.575 349.708 363.018 350.776 363.805 351.563C364.592 352.351 365.66 352.793 366.774 352.793Z" fill="black"/>
<path d="M138.905 376.661H80.4102C79.2967 376.661 78.2288 377.103 77.4415 377.891C76.6541 378.678 76.2118 379.746 76.2118 380.859V431.513C76.2118 432.627 76.6541 433.695 77.4415 434.482C78.2288 435.269 79.2967 435.712 80.4102 435.712H138.905C140.018 435.712 141.086 435.269 141.873 434.482C142.661 433.695 143.103 432.627 143.103 431.513V380.859C143.103 379.746 142.661 378.678 141.873 377.891C141.086 377.103 140.018 376.661 138.905 376.661Z" fill="black"/>
<path d="M234.356 376.661H175.872C174.758 376.661 173.69 377.103 172.903 377.891C172.116 378.678 171.673 379.746 171.673 380.859V431.513C171.673 432.627 172.116 433.695 172.903 434.482C173.69 435.269 174.758 435.712 175.872 435.712H234.356C235.469 435.712 236.537 435.269 237.324 434.482C238.112 433.695 238.554 432.627 238.554 431.513V380.859C238.554 379.746 238.112 378.678 237.324 377.891C236.537 377.103 235.469 376.661 234.356 376.661Z" fill="black"/>
<path d="M329.817 376.661H271.323C270.209 376.661 269.141 377.103 268.354 377.891C267.567 378.678 267.124 379.746 267.124 380.859V431.513C267.124 432.627 267.567 433.695 268.354 434.482C269.141 435.269 270.209 435.712 271.323 435.712H329.817C330.931 435.712 331.999 435.269 332.786 434.482C333.573 433.695 334.016 432.627 334.016 431.513V380.859C334.016 379.746 333.573 378.678 332.786 377.891C331.999 377.103 330.931 376.661 329.817 376.661Z" fill="black"/>
<path d="M425.268 376.661H366.774C365.66 376.661 364.592 377.103 363.805 377.891C363.018 378.678 362.575 379.746 362.575 380.859V431.513C362.575 432.627 363.018 433.695 363.805 434.482C364.592 435.269 365.66 435.712 366.774 435.712H425.268C426.382 435.712 427.45 435.269 428.237 434.482C429.024 433.695 429.467 432.627 429.467 431.513V380.859C429.467 379.746 429.024 378.678 428.237 377.891C427.45 377.103 426.382 376.661 425.268 376.661Z" fill="black"/>
</svg>
