<svg width="526" height="492" viewBox="0 0 526 492" fill="none" xmlns="http://www.w3.org/2000/svg">
<path d="M468.881 31.191H430.848V17.0747C430.848 7.64988 423.215 0.0111084 413.79 0.0111084C404.365 0.0111084 396.732 7.64988 396.732 17.0747V31.191H280.062V17.0747C280.062 7.64988 272.429 0.0111084 263.004 0.0111084C253.579 0.0111084 245.946 7.64988 245.946 17.0747V31.191H129.276V17.0747C129.276 7.64988 121.643 0.0111084 112.218 0.0111084C102.793 0.0111084 95.1597 7.64988 95.1597 17.0747V31.191H57.1273C25.9994 31.191 0.672241 56.5182 0.672241 87.6511V435.53C0.672241 466.663 25.9994 491.99 57.1273 491.99H468.881C500.009 491.99 525.336 466.663 525.336 435.53V87.6511C525.336 56.5182 500.009 31.191 468.881 31.191ZM57.1274 65.318H95.1598V79.4396C95.1598 88.8644 102.793 96.5032 112.218 96.5032C121.643 96.5032 129.276 88.8644 129.276 79.4396V65.318H245.946V79.4396C245.946 88.8644 253.579 96.5032 263.004 96.5032C272.429 96.5032 280.063 88.8644 280.063 79.4396V65.318H396.732V79.4396C396.732 88.8644 404.366 96.5032 413.79 96.5032C423.215 96.5032 430.849 88.8644 430.849 79.4396V65.318H468.881C481.201 65.318 491.219 75.3364 491.219 87.6511V145.012H34.789V87.6511C34.789 75.3364 44.8074 65.318 57.1274 65.318ZM468.881 457.863H57.1274C44.8075 457.863 34.789 447.844 34.789 435.53V179.139H491.219V435.53C491.219 447.844 481.201 457.863 468.881 457.863Z" fill="black"/>
<path d="M155.27 222.077H105.251C95.8262 222.077 88.1926 229.715 88.1926 239.14C88.1926 248.565 95.8262 256.204 105.251 256.204H155.27C164.695 256.204 172.328 248.565 172.328 239.14C172.328 229.715 164.695 222.077 155.27 222.077Z" fill="black"/>
<path d="M155.27 303.182H105.251C95.8262 303.182 88.1926 310.821 88.1926 320.245C88.1926 329.67 95.8262 337.309 105.251 337.309H155.27C164.695 337.309 172.328 329.67 172.328 320.245C172.328 310.821 164.695 303.182 155.27 303.182Z" fill="black"/>
<path d="M155.27 384.287H105.251C95.8262 384.287 88.1926 391.926 88.1926 401.351C88.1926 410.775 95.8262 418.414 105.251 418.414H155.27C164.695 418.414 172.328 410.775 172.328 401.351C172.328 391.926 164.695 384.287 155.27 384.287Z" fill="black"/>
<path d="M287.123 222.077H237.104C227.679 222.077 220.046 229.715 220.046 239.14C220.046 248.565 227.679 256.204 237.104 256.204H287.123C296.548 256.204 304.182 248.565 304.182 239.14C304.182 229.715 296.548 222.077 287.123 222.077Z" fill="black"/>
<path d="M287.123 303.182H237.104C227.679 303.182 220.046 310.821 220.046 320.245C220.046 329.67 227.679 337.309 237.104 337.309H287.123C296.548 337.309 304.182 329.67 304.182 320.245C304.182 310.821 296.548 303.182 287.123 303.182Z" fill="black"/>
<path d="M287.123 384.287H237.104C227.679 384.287 220.046 391.926 220.046 401.351C220.046 410.775 227.679 418.414 237.104 418.414H287.123C296.548 418.414 304.182 410.775 304.182 401.351C304.182 391.926 296.548 384.287 287.123 384.287Z" fill="black"/>
<path d="M418.987 222.077H368.968C359.543 222.077 351.909 229.715 351.909 239.14C351.909 248.565 359.543 256.204 368.968 256.204H418.987C428.412 256.204 436.045 248.565 436.045 239.14C436.045 229.715 428.412 222.077 418.987 222.077Z" fill="black"/>
<path d="M418.987 303.182H368.968C359.543 303.182 351.909 310.821 351.909 320.245C351.909 329.67 359.543 337.309 368.968 337.309H418.987C428.412 337.309 436.045 329.67 436.045 320.245C436.045 310.821 428.412 303.182 418.987 303.182Z" fill="black"/>
<path d="M418.987 384.287H368.968C359.543 384.287 351.909 391.926 351.909 401.351C351.909 410.775 359.543 418.414 368.968 418.414H418.987C428.412 418.414 436.045 410.775 436.045 401.351C436.045 391.926 428.412 384.287 418.987 384.287Z" fill="black"/>
</svg>
