<svg width="493" height="500" viewBox="0 0 493 500" fill="none" xmlns="http://www.w3.org/2000/svg">
<g clip-path="url(#clip0_121_29)">
<path d="M231.768 117.568C243.395 117.568 254.762 114.12 264.43 107.66C274.098 101.2 281.633 92.0175 286.083 81.2746C290.532 70.5318 291.695 58.7108 289.426 47.3065C287.157 35.9023 281.557 25.4271 273.334 17.2057C265.111 8.98429 254.635 3.38594 243.231 1.11866C231.826 -1.14863 220.005 0.0169817 209.263 4.46808C198.521 8.91919 189.34 16.4558 182.882 26.1249C176.423 35.794 172.977 47.1613 172.979 58.7891C172.997 74.3744 179.197 89.3161 190.218 100.336C201.239 111.355 216.182 117.553 231.768 117.568ZM231.768 11.9629C241.039 11.9629 250.101 14.7121 257.81 19.8627C265.518 25.0134 271.527 32.3343 275.074 40.8996C278.622 49.4649 279.551 58.8899 277.742 67.9827C275.933 77.0756 271.469 85.4279 264.913 91.9835C258.358 98.5391 250.005 103.004 240.912 104.812C231.82 106.621 222.395 105.693 213.829 102.145C205.264 98.5969 197.943 92.5888 192.792 84.8802C187.642 77.1717 184.893 68.1089 184.893 58.8379C184.906 46.4143 189.85 34.504 198.639 25.7238C207.429 16.9436 219.344 12.0117 231.768 12.0117V11.9629Z" fill="black"/>
<path d="M227.764 63.2324C228.727 64.0946 229.943 64.6219 231.231 64.7354C232.518 64.849 233.808 64.5427 234.907 63.8623C236.006 63.182 236.856 62.1641 237.328 60.961C237.801 59.7578 237.871 58.434 237.529 57.1875L229.326 27.6562C229.116 26.8977 228.759 26.1879 228.275 25.5673C227.791 24.9467 227.19 24.4275 226.505 24.0394C225.821 23.6513 225.066 23.4018 224.285 23.3052C223.504 23.2087 222.712 23.2669 221.953 23.4766C221.195 23.6862 220.485 24.0433 219.864 24.5273C219.244 25.0113 218.724 25.6128 218.336 26.2974C217.948 26.9821 217.699 27.7365 217.602 28.5175C217.506 29.2986 217.564 30.091 217.773 30.8496L220.479 40.6152L219.346 39.6387C218.762 39.1129 218.081 38.7072 217.341 38.4447C216.6 38.1822 215.815 38.0681 215.031 38.1089C214.247 38.1497 213.478 38.3446 212.769 38.6825C212.06 39.0204 211.424 39.4946 210.898 40.0781C210.373 40.6616 209.967 41.343 209.704 42.0833C209.442 42.8236 209.328 43.6084 209.369 44.3928C209.409 45.1772 209.604 45.9459 209.942 46.6549C210.28 47.364 210.754 47.9996 211.338 48.5254L227.764 63.2324Z" fill="black"/>
<path d="M125.518 228.643C126.445 228.711 127.363 228.74 128.272 228.74C138.198 228.725 147.732 224.861 154.867 217.96C162.002 211.059 166.183 201.66 166.53 191.739C166.876 181.819 163.362 172.151 156.726 164.769C150.089 157.387 140.849 152.866 130.947 152.158C129.971 152.09 129.102 152.061 128.193 152.061C118.267 152.076 108.733 155.94 101.598 162.841C94.4626 169.742 90.2819 179.141 89.9353 189.062C89.5887 198.982 93.1032 208.65 99.7394 216.032C106.376 223.414 115.616 227.935 125.518 228.643Z" fill="black"/>
<path d="M257.148 319.736H215.41C215.41 319.355 215.518 318.984 215.547 318.594C215.883 314.028 214.392 309.515 211.401 306.048C208.411 302.582 204.166 300.445 199.6 300.107L188.311 299.277L173.828 265.625C173.166 264.223 171.986 263.132 170.536 262.582C169.086 262.032 167.48 262.067 166.054 262.678C164.629 263.289 163.497 264.43 162.896 265.859C162.295 267.289 162.272 268.896 162.832 270.342C165.762 277.266 171.748 291.113 174.834 298.33L148.301 296.377L112.539 259.082L140.859 278.32V270.723C140.876 259.672 136.874 248.993 129.6 240.674C122.541 240.874 115.52 239.578 108.998 236.872C102.476 234.165 96.6008 230.11 91.7579 224.971H88.9844C77.3294 224.971 66.1517 229.601 57.9104 237.842C49.6691 246.083 45.0391 257.261 45.0391 268.916V329.277L29.3848 230.215C29.1174 228.265 28.4637 226.389 27.4618 224.696C26.4599 223.002 25.1301 221.526 23.5502 220.353C21.9704 219.18 20.1723 218.334 18.2614 217.865C16.3505 217.396 14.3652 217.313 12.4219 217.621C10.4785 217.929 8.61617 218.622 6.94404 219.659C5.2719 220.696 3.82358 222.057 2.68397 223.661C1.54436 225.265 0.736371 227.08 0.307366 229C-0.12164 230.921 -0.163034 232.907 0.185608 234.844L25.4688 394.473C26.0192 397.943 27.7882 401.103 30.4585 403.387C33.1288 405.671 36.5255 406.928 40.0391 406.934H48.1446L27.9297 489.424C27.6372 490.511 27.5649 491.645 27.717 492.761C27.8691 493.876 28.2426 494.95 28.8155 495.918C29.3884 496.887 30.1492 497.732 31.0531 498.403C31.9571 499.074 32.986 499.557 34.0794 499.824C35.1728 500.092 36.3086 500.138 37.4202 499.961C38.5317 499.783 39.5965 499.385 40.552 498.79C41.5075 498.195 42.3345 497.415 42.9843 496.496C43.6341 495.577 44.0937 494.537 44.336 493.438L65.5665 406.934H123.184L144.385 493.438C144.627 494.537 145.087 495.577 145.737 496.496C146.386 497.415 147.213 498.195 148.169 498.79C149.124 499.385 150.189 499.783 151.301 499.961C152.412 500.138 153.548 500.092 154.641 499.824C155.735 499.557 156.764 499.074 157.668 498.403C158.572 497.732 159.332 496.887 159.905 495.918C160.478 494.95 160.852 493.876 161.004 492.761C161.156 491.645 161.084 490.511 160.791 489.424L140.576 406.934H150.147C152.582 406.936 154.981 406.335 157.128 405.185C159.275 404.035 161.104 402.371 162.451 400.342L181.162 483.809C181.757 486.463 182.869 488.975 184.435 491.2C186.001 493.424 187.989 495.319 190.287 496.775C194.928 499.717 200.547 500.694 205.908 499.492C208.563 498.897 211.074 497.785 213.299 496.219C215.524 494.654 217.419 492.665 218.875 490.367C220.331 488.069 221.321 485.507 221.787 482.827C222.253 480.147 222.187 477.401 221.592 474.746L195.801 359.854H154.629C149.159 359.845 143.839 358.07 139.459 354.794C135.079 351.518 131.875 346.915 130.322 341.67C125.695 340.488 121.694 337.581 119.141 333.545L87.6465 283.008L128.037 325C130.987 328.066 134.966 329.934 139.209 330.244L140.449 330.342C139.805 332.544 139.682 334.867 140.091 337.125C140.5 339.383 141.429 341.515 142.805 343.352C144.181 345.188 145.966 346.679 148.018 347.706C150.071 348.733 152.334 349.267 154.629 349.268H257.168C261.022 349.169 264.685 347.568 267.376 344.807C270.067 342.046 271.573 338.343 271.573 334.487C271.573 330.632 270.067 326.929 267.376 324.168C264.685 321.407 261.022 319.806 257.168 319.707L257.148 319.736ZM52.7344 377.373L50.5372 363.555C53.4532 368.899 57.4193 373.6 62.1973 377.373H52.7344Z" fill="black"/>
<path d="M375.986 92.4023C398.159 92.4023 416.133 74.4282 416.133 52.2559C416.133 30.0836 398.159 12.1094 375.986 12.1094C353.814 12.1094 335.84 30.0836 335.84 52.2559C335.84 74.4282 353.814 92.4023 375.986 92.4023Z" fill="black"/>
<path d="M369.346 105.977C368.903 105.99 368.468 106.1 368.071 106.297C367.674 106.494 367.325 106.775 367.047 107.12C366.768 107.465 366.568 107.866 366.459 108.296C366.35 108.725 366.336 109.174 366.416 109.609L368.897 121.016C369.025 121.702 369.387 122.323 369.921 122.774C370.455 123.224 371.128 123.476 371.826 123.486H381.904C382.603 123.476 383.276 123.224 383.81 122.774C384.344 122.323 384.706 121.702 384.834 121.016L387.305 109.609C387.387 109.173 387.373 108.725 387.265 108.294C387.157 107.864 386.957 107.462 386.678 107.117C386.4 106.771 386.05 106.491 385.652 106.294C385.254 106.097 384.819 105.989 384.375 105.977H369.346Z" fill="black"/>
<path d="M492.188 218.574L471.094 147.529C467.479 135.552 460.115 125.05 450.086 117.57C440.057 110.09 427.892 106.026 415.381 105.977H402.549C401.064 113.711 394.736 142.773 382.803 151.875L384.883 142.012C384.95 141.69 384.95 141.357 384.883 141.035L382.441 128.623C382.324 128.067 382.018 127.568 381.575 127.212C381.131 126.856 380.578 126.664 380.01 126.67H370.654C370.087 126.668 369.536 126.861 369.093 127.216C368.651 127.572 368.343 128.068 368.223 128.623L365.781 141.035C365.719 141.358 365.719 141.689 365.781 142.012L367.861 151.875C355.889 142.764 349.6 113.701 348.105 105.977H336.631C324.128 106.037 311.974 110.105 301.955 117.585C291.936 125.064 284.579 135.56 280.967 147.529L259.883 218.574C258.493 223.256 258.996 228.295 261.285 232.609C263.573 236.923 267.464 240.166 272.119 241.641L323.936 258.076V476.67C323.872 479.764 324.427 482.84 325.567 485.717C326.707 488.594 328.41 491.215 330.576 493.426C332.742 495.636 335.327 497.393 338.181 498.592C341.034 499.791 344.098 500.408 347.192 500.408C350.287 500.408 353.351 499.791 356.204 498.592C359.057 497.393 361.643 495.636 363.809 493.426C365.974 491.215 367.677 488.594 368.818 485.717C369.958 482.84 370.513 479.764 370.449 476.67V290.859H380.273V476.67C380.21 479.764 380.765 482.84 381.905 485.717C383.045 488.594 384.748 491.215 386.914 493.426C389.08 495.636 391.665 497.393 394.518 498.592C397.372 499.791 400.435 500.408 403.53 500.408C406.625 500.408 409.689 499.791 412.542 498.592C415.395 497.393 417.981 495.636 420.146 493.426C422.312 491.215 424.015 488.594 425.156 485.717C426.296 482.84 426.851 479.764 426.787 476.67V258.486L479.902 241.631C484.568 240.171 488.471 236.934 490.77 232.62C493.068 228.306 493.578 223.261 492.188 218.574ZM324.072 219.004L300.781 211.641L316.66 158.135C317.92 153.886 320.499 150.148 324.023 147.461L324.072 219.004ZM426.689 219.414V146.582C430.872 149.273 433.954 153.371 435.381 158.135L451.27 211.641L426.689 219.414Z" fill="black"/>
</g>
<defs>
<clipPath id="clip0_121_29">
<rect width="492.91" height="500" fill="white"/>
</clipPath>
</defs>
</svg>
