<svg id="Layer_1" viewBox="0 0 64 64" xmlns="http://www.w3.org/2000/svg"><path d="m23 53v9c0 .55.45 1 1 1h16c.55 0 1-.45 1-1v-9c0-3.47-2.54-6.35-5.86-6.9 1.71-1.06 2.86-2.95 2.86-5.1 0-3.31-2.69-6-6-6s-6 2.69-6 6c0 2.16 1.15 4.04 2.86 5.1-3.32.55-5.86 3.43-5.86 6.9zm5-12c0-2.21 1.79-4 4-4s4 1.79 4 4-1.79 4-4 4-4-1.79-4-4zm2 7h4c2.76 0 5 2.24 5 5v8h-14v-8c0-2.76 2.24-5 5-5z"/><path d="m44 53v8c0 .55.45 1 1 1h14c.55 0 1-.45 1-1v-8c0-2.98-2.19-5.46-5.04-5.92 1.38-.95 2.29-2.53 2.29-4.33 0-2.9-2.36-5.25-5.25-5.25s-5.25 2.35-5.25 5.25c0 1.8.91 3.39 2.29 4.33-2.85.46-5.04 2.93-5.04 5.92zm4.75-10.25c0-1.79 1.46-3.25 3.25-3.25s3.25 1.46 3.25 3.25-1.46 3.25-3.25 3.25-3.25-1.46-3.25-3.25zm-2.75 10.25c0-2.21 1.79-4 4-4h4c2.21 0 4 1.79 4 4v7h-12z"/><path d="m45 23v-20c0-1.1-.9-2-2-2h-22c-1.1 0-2 .9-2 2v20c0 1.1.9 2 2 2h8.28l1.77 5.32c.14.41.52.68.95.68s.81-.28.95-.68l1.77-5.32h8.28c1.1 0 2-.9 2-2zm-11 0c-.43 0-.81.28-.95.68l-1.05 3.15-1.05-3.15c-.14-.41-.52-.68-.95-.68h-9v-20h22v20z"/><path d="m61 8h-13v2h13v18h-7.29c-.4 0-.76.24-.92.61l-.79 1.85-.79-1.85c-.16-.37-.52-.61-.92-.61h-7.29v2h6.63l1.45 3.39c.16.37.52.61.92.61s.76-.24.92-.61l1.45-3.39h6.63c1.1 0 2-.9 2-2v-18c0-1.1-.9-2-2-2z"/><path d="m4 53v8c0 .55.45 1 1 1h14c.55 0 1-.45 1-1v-8c0-2.98-2.19-5.46-5.04-5.92 1.38-.95 2.29-2.53 2.29-4.33 0-2.9-2.36-5.25-5.25-5.25s-5.25 2.35-5.25 5.25c0 1.8.91 3.39 2.29 4.33-2.85.46-5.04 2.93-5.04 5.92zm4.75-10.25c0-1.79 1.46-3.25 3.25-3.25s3.25 1.46 3.25 3.25-1.46 3.25-3.25 3.25-3.25-1.46-3.25-3.25zm-2.75 10.25c0-2.21 1.79-4 4-4h4c2.21 0 4 1.79 4 4v7h-12z"/><path d="m3 30h6.63l1.45 3.39c.16.37.52.61.92.61s.76-.24.92-.61l1.45-3.39h6.63v-2h-7.29c-.4 0-.76.24-.92.61l-.79 1.85-.79-1.85c-.16-.37-.52-.61-.92-.61h-7.29v-18h13v-2h-13c-1.1 0-2 .9-2 2v18c0 1.1.9 2 2 2z"/><path d="m37.44 11h-1.03l.53-2.11c.3-1.2-.36-2.41-1.49-2.77-1.15-.36-2.38.24-2.81 1.36l-.99 2.65c-.19.52-.7.87-1.25.87h-.4c0-.55-.45-.99-1-.99h-4c-.55 0-1 .45-1 1v8c0 .55.45 1 1 1h4c.49 0 .88-.36.96-.82l.98.65c.16.11.36.17.55.17h5.51c1.3 0 2.4-.98 2.54-2.28l.43-3.9c.08-.72-.15-1.45-.64-1.99s-1.18-.85-1.91-.85zm-9.44 7.01h-2v-6h2zm9.56-.5c-.03.28-.27.5-.55.5h-5.21l-1.25-.83c-.16-.11-.36-.17-.55-.17v-4.01h.39c1.38 0 2.64-.87 3.13-2.17l.99-2.65c.04-.12.18-.21.34-.16.12.04.19.22.15.37l-.84 3.36c-.08.3 0 .62.18.86s.48.38.79.38h2.31c.22 0 .35.12.42.19s.16.22.14.43l-.43 3.9z"/><path d="m51.12 22.5 1.71 1.3c.18.14.39.2.6.2s.43-.07.6-.2l1.71-1.3c1.08-.82 1.99-1.84 2.71-3.04.84-1.39.68-3.2-.4-4.39-.62-.69-1.46-1.07-2.36-1.07-.86 0-1.66.35-2.27.98-.61-.63-1.42-.98-2.27-.98-.9 0-1.74.38-2.36 1.07-1.07 1.19-1.24 3-.4 4.39.72 1.2 1.63 2.22 2.71 3.04zm-.83-6.09c.24-.27.55-.41.87-.41s.64.15.88.41l.66.73c.38.42 1.11.42 1.48 0l.66-.73c.48-.53 1.27-.53 1.75 0 .47.53.55 1.39.17 2.02-.59.98-1.33 1.81-2.21 2.48l-1.11.84-1.11-.84c-.88-.66-1.62-1.5-2.21-2.48-.38-.62-.3-1.49.17-2.02z"/><path d="m6.5 14.5h2v2h-2z"/><path d="m11.5 14.5h2v2h-2z"/><path d="m10 23.5c2.76 0 5-2.24 5-5h-2c0 1.65-1.35 3-3 3s-3-1.35-3-3h-2c0 2.76 2.24 5 5 5z"/></svg>