<svg width="321" height="200" viewBox="0 0 321 200" fill="none" xmlns="http://www.w3.org/2000/svg">
<path d="M199.735 102.694L217.91 84.519C220.678 94.683 220.71 105.398 218.005 115.579C215.299 125.759 209.951 135.044 202.502 142.493C195.054 149.942 185.769 155.29 175.588 157.995C165.407 160.701 154.692 160.668 144.528 157.9L162.703 139.725C172.311 139.076 181.357 134.966 188.166 128.157C194.975 121.348 199.085 112.301 199.735 102.694ZM318.759 95.144C317.509 92.9315 300.084 62.3628 265.984 36.4567L251.434 51.0129C269.708 64.5646 285.538 81.1308 298.247 100C286.372 118.05 239.897 180 160.01 180C148.694 179.973 137.419 178.639 126.41 176.025L109.972 192.456C126.18 197.461 143.047 200.004 160.01 200C264.691 200 316.591 108.75 318.759 104.856C319.585 103.371 320.018 101.7 320.018 100C320.018 98.3009 319.585 96.6295 318.759 95.144ZM252.078 22.0692L79.5786 194.569C77.688 196.365 75.1705 197.352 72.5629 197.318C69.9553 197.285 67.4639 196.234 65.6199 194.39C63.7759 192.546 62.7251 190.055 62.6918 187.447C62.6584 184.839 63.645 182.322 65.4411 180.431L70.9286 174.938C25.6787 147.625 2.68506 107.413 1.26006 104.856C0.433686 103.37 0 101.698 0 99.9971C0 98.2965 0.433686 96.624 1.26006 95.1378C3.42881 91.2503 55.3287 0.000500159 160.01 0.000500159C184.358 -0.0588432 208.43 5.16325 230.566 15.3067L237.941 7.93173C239.831 6.13554 242.349 5.14896 244.956 5.18234C247.564 5.21573 250.055 6.26644 251.899 8.11045C253.743 9.95446 254.794 12.4459 254.828 15.0535C254.861 17.6611 253.874 20.1786 252.078 22.0692ZM85.8411 160L111.16 134.688C102.924 123.148 99.0469 109.062 100.219 94.9337C101.391 80.8052 107.535 67.5502 117.56 57.5255C127.585 47.5008 140.84 41.3563 154.968 40.1844C169.097 39.0125 183.183 42.8893 194.722 51.1254L215.191 30.6504C197.651 23.5919 178.916 19.9761 160.01 20.0004C80.1224 20.0004 33.6287 81.9378 21.7788 100C29.2787 111.4 50.9349 140.275 85.8411 160.038V160ZM125.678 120.163L180.197 65.6441C174.098 61.9805 167.124 60.0307 160.01 60.0003C149.405 60.0119 139.237 64.2299 131.738 71.7288C124.239 79.2278 120.021 89.3952 120.01 100C120.048 107.117 122.006 114.091 125.678 120.188V120.163Z" fill="black"/>
</svg>
