<svg width="526" height="500" viewBox="0 0 526 500" fill="none" xmlns="http://www.w3.org/2000/svg">
<path d="M517.209 222.141L472.773 181.65V47.375C472.759 43.2811 471.123 39.3597 468.222 36.4706C465.322 33.5816 461.394 31.9607 457.3 31.9635H350.354C348.323 31.9621 346.311 32.3611 344.434 33.1376C342.557 33.914 340.851 35.0528 339.414 36.4888C337.977 37.9248 336.837 39.6299 336.059 41.5066C335.282 43.3833 334.881 45.3949 334.881 47.4263V56.0362L281.188 7.07907C276.235 2.52453 269.751 -0.00317383 263.023 -0.00317383C256.294 -0.00317383 249.811 2.52453 244.858 7.07907L8.8359 222.141C4.81161 225.805 1.98998 230.601 0.741838 235.898C-0.506306 241.196 -0.122569 246.747 1.84262 251.822C3.80781 256.897 7.2625 261.259 11.7527 264.335C16.2429 267.41 21.5585 269.055 27.0009 269.054H64.7282V484.527C64.7282 488.62 66.3499 492.546 69.2384 495.446C72.1268 498.346 76.0467 499.984 80.1397 500H209.535C213.638 500 217.574 498.37 220.476 495.468C223.377 492.566 225.008 488.631 225.008 484.527V353.704H301.038V484.527C301.038 488.631 302.668 492.566 305.57 495.468C308.471 498.37 312.407 500 316.511 500H445.906C449.999 499.984 453.919 498.346 456.807 495.446C459.695 492.546 461.317 488.62 461.317 484.527V269.054H499.024C504.466 269.055 509.782 267.41 514.272 264.335C518.762 261.259 522.217 256.897 524.182 251.822C526.147 246.747 526.531 241.196 525.283 235.898C524.035 230.601 521.213 225.805 517.189 222.141H517.209ZM445.906 238.118C441.814 238.131 437.894 239.767 435.005 242.665C432.116 245.563 430.494 249.489 430.494 253.581V469.064H332.066V338.231C332.068 336.199 331.669 334.188 330.892 332.31C330.116 330.433 328.977 328.727 327.541 327.29C326.105 325.853 324.4 324.713 322.523 323.936C320.646 323.158 318.635 322.758 316.603 322.758H209.535C205.431 322.758 201.495 324.388 198.593 327.29C195.692 330.191 194.061 334.127 194.061 338.231V469.064H95.6334V253.581C95.6334 249.489 94.0114 245.563 91.1226 242.665C88.2339 239.767 84.314 238.131 80.2219 238.118H37.2341L263.023 32.3847L339.916 102.445C342.132 104.456 344.885 105.779 347.839 106.256C350.793 106.733 353.822 106.343 356.559 105.132C359.295 103.921 361.622 101.943 363.256 99.4361C364.89 96.9294 365.762 94.0024 365.766 91.01V62.8481H441.796V188.483C441.808 190.641 442.272 192.774 443.156 194.743C444.041 196.712 445.327 198.475 446.933 199.918L488.852 238.118H445.906Z" fill="white"/>
</svg>
