<svg width="546" height="500" viewBox="0 0 546 500" fill="none" xmlns="http://www.w3.org/2000/svg">
<path d="M391.998 433.673H339.285V392.02H204.976V433.673H151.354C142.663 433.831 134.381 437.395 128.291 443.597C122.2 449.799 118.788 458.144 118.788 466.837C118.788 475.529 122.2 483.874 128.291 490.076C134.381 496.279 142.663 499.842 151.354 500H391.154C399.947 499.988 408.375 496.49 414.592 490.272C420.808 484.053 424.303 475.623 424.312 466.831C425.167 448.12 410.709 433.673 391.998 433.673Z" fill="black"/>
<path d="M502.543 0H41.653C30.613 0.0231689 20.0319 4.41903 12.2255 12.2255C4.41903 20.0319 0.0231689 30.613 0 41.653L0 333.333C0.0231689 344.373 4.41903 354.954 12.2255 362.761C20.0319 370.567 30.613 374.963 41.653 374.986H503.398C514.438 374.963 525.019 370.567 532.826 362.761C540.632 354.954 545.028 344.373 545.051 333.333V41.653C544.207 18.7109 525.507 0 502.543 0ZM527.239 301.019H197.304L195.594 249.15C195.567 246.351 196.099 243.574 197.159 240.982C198.218 238.39 199.783 236.035 201.763 234.055C203.743 232.075 206.098 230.51 208.69 229.451C211.282 228.391 214.059 227.859 216.858 227.886C229.173 227.689 241.094 223.513 250.839 215.982L323.117 160.715C326.515 158.161 327.37 153.042 324.816 148.811L320.563 142.859L398.805 90.9788C403.058 88.4249 403.902 83.3059 401.359 79.0749C400.504 77.3649 398.805 76.5209 397.106 75.6659H485.586C486.728 75.7069 487.866 75.5174 488.934 75.1087C490.001 74.7 490.974 74.0804 491.797 73.287C492.619 72.4936 493.273 71.5427 493.72 70.4909C494.167 69.4391 494.397 68.3081 494.397 67.1654C494.397 66.0227 494.167 64.8917 493.72 63.8399C493.273 62.7881 492.619 61.8372 491.797 61.0438C490.974 60.2504 490.001 59.6308 488.934 59.2221C487.866 58.8134 486.728 58.6239 485.586 58.6649H255.947C254.813 58.5961 253.678 58.7687 252.616 59.1713C251.554 59.5739 250.59 60.1973 249.787 61.0003C248.984 61.8032 248.36 62.7675 247.958 63.8294C247.555 64.8912 247.383 66.0264 247.451 67.1599C247.386 68.2917 247.561 69.4244 247.965 70.4836C248.369 71.5428 248.993 72.5044 249.795 73.3049C250.598 74.1055 251.561 74.7269 252.621 75.1282C253.682 75.5294 254.815 75.7015 255.947 75.633H391.154C390.299 75.633 390.299 75.633 389.455 76.488L310.369 128.357L306.116 122.405C304.791 120.594 302.845 119.333 300.651 118.862C298.456 118.391 296.165 118.743 294.212 119.851L204.078 178.527H142.859C141.111 178.565 139.421 179.165 138.04 180.236C136.658 181.308 135.658 182.795 135.186 184.479L124.126 215.094H120.728L109.668 184.479C109.194 182.796 108.193 181.31 106.812 180.238C105.431 179.167 103.743 178.567 101.995 178.527C95.1704 178.48 88.4046 179.79 82.0906 182.38C75.7765 184.97 70.0399 188.789 65.2142 193.615C60.3884 198.441 56.5695 204.177 53.9794 210.491C51.3892 216.805 50.0794 223.571 50.1261 230.396V300.976H17.0119V41.653C17.0178 35.1195 19.6157 28.8554 24.2355 24.2355C28.8554 19.6157 35.1195 17.0178 41.653 17.0119H503.398C509.934 17.0148 516.202 19.6112 520.826 24.231C525.45 28.8508 528.052 35.1166 528.061 41.653V301.019H527.239Z" fill="black"/>
<path d="M485.586 114.798H377.551C376.409 114.757 375.271 114.946 374.204 115.355C373.136 115.764 372.163 116.383 371.34 117.177C370.518 117.97 369.864 118.921 369.417 119.973C368.97 121.025 368.74 122.156 368.74 123.298C368.74 124.441 368.97 125.572 369.417 126.624C369.864 127.676 370.518 128.626 371.34 129.42C372.163 130.213 373.136 130.833 374.204 131.242C375.271 131.65 376.409 131.84 377.551 131.799H485.586C486.728 131.84 487.866 131.65 488.934 131.242C490.001 130.833 490.974 130.213 491.797 129.42C492.619 128.626 493.273 127.676 493.72 126.624C494.167 125.572 494.397 124.441 494.397 123.298C494.397 122.156 494.167 121.025 493.72 119.973C493.273 118.921 492.619 117.97 491.797 117.177C490.974 116.383 490.001 115.764 488.934 115.355C487.866 114.946 486.728 114.757 485.586 114.798Z" fill="black"/>
<path d="M485.586 170.065H335.876C333.62 170.065 331.457 170.961 329.862 172.556C328.267 174.151 327.37 176.315 327.37 178.571C327.37 180.827 328.267 182.99 329.862 184.585C331.457 186.18 333.62 187.077 335.876 187.077H486.386C487.521 187.145 488.658 186.973 489.721 186.569C490.784 186.166 491.749 185.542 492.553 184.738C493.357 183.934 493.982 182.969 494.385 181.905C494.788 180.842 494.961 179.706 494.892 178.571C494.048 173.463 490.639 170.065 485.542 170.065H485.586Z" fill="black"/>
<path d="M485.586 224.488H269.648C267.392 224.488 265.229 225.384 263.634 226.979C262.038 228.574 261.142 230.738 261.142 232.994C261.142 235.249 262.038 237.413 263.634 239.008C265.229 240.603 267.392 241.5 269.648 241.5H485.586C486.72 241.567 487.856 241.392 488.919 240.989C489.981 240.585 490.946 239.961 491.749 239.157C492.553 238.353 493.177 237.389 493.581 236.326C493.985 235.264 494.159 234.128 494.092 232.994C494.086 230.739 493.188 228.579 491.594 226.985C490 225.391 487.84 224.493 485.586 224.488Z" fill="black"/>
<path d="M123.293 73.9779C114.547 73.9779 105.998 76.5712 98.7266 81.4299C91.455 86.2887 85.7875 93.1946 82.4407 101.274C79.094 109.354 78.2183 118.245 79.9245 126.822C81.6306 135.4 85.842 143.279 92.026 149.463C98.21 155.647 106.089 159.858 114.666 161.564C123.244 163.27 132.134 162.395 140.214 159.048C148.294 155.701 155.2 150.034 160.059 142.762C164.917 135.49 167.511 126.941 167.511 118.196C167.551 112.378 166.436 106.609 164.228 101.226C162.02 95.843 158.765 90.9522 154.651 86.838C150.536 82.7239 145.646 79.4684 140.262 77.2607C134.879 75.0529 129.111 73.9371 123.293 73.9779Z" fill="black"/>
</svg>
