<svg width="461" height="267" viewBox="0 0 461 267" fill="none" xmlns="http://www.w3.org/2000/svg">
<g clip-path="url(#clip0_145_2)">
<path d="M419.84 0H102.4C91.5326 0.0211428 81.1164 4.34756 73.432 12.032C65.7476 19.7164 61.4211 30.1326 61.4 41V56.32C61.4 59.0358 62.4789 61.6404 64.3992 63.5608C66.3196 65.4811 68.9242 66.56 71.64 66.56C74.3558 66.56 76.9604 65.4811 78.8808 63.5608C80.8011 61.6404 81.88 59.0358 81.88 56.32V41C81.9633 38.9204 82.2991 36.8586 82.88 34.86L197.57 133.16L82.94 231.42C82.3591 229.421 82.0233 227.36 81.94 225.28V209.92C81.94 207.204 80.8611 204.6 78.9408 202.679C77.0204 200.759 74.4158 199.68 71.7 199.68C68.9842 199.68 66.3796 200.759 64.4592 202.679C62.5389 204.6 61.46 207.204 61.46 209.92V225.28C61.4811 236.147 65.8076 246.564 73.492 254.248C81.1764 261.932 91.5926 266.259 102.46 266.28H419.84C430.707 266.259 441.124 261.932 448.808 254.248C456.492 246.564 460.819 236.147 460.84 225.28V41C460.819 30.1326 456.492 19.7164 448.808 12.032C441.124 4.34756 430.707 0.0211428 419.84 0ZM98.3 21C99.6163 20.5464 101.013 20.3727 102.4 20.49H419.84C421.227 20.3727 422.624 20.5464 423.94 21L267.78 154.62C265.882 156.116 263.536 156.929 261.12 156.929C258.704 156.929 256.358 156.116 254.46 154.62L98.3 21ZM419.84 245.76H102.4C101.013 245.877 99.6163 245.704 98.3 245.25L213.5 146.43L241.15 170.5C246.626 175.444 253.742 178.181 261.12 178.181C268.498 178.181 275.614 175.444 281.09 170.5L308.74 146.43L423.94 245.25C422.624 245.704 421.227 245.877 419.84 245.76ZM440.32 225.28C440.237 227.36 439.901 229.421 439.32 231.42L324.63 133.12L439.3 34.82C439.881 36.8186 440.217 38.8804 440.3 40.96L440.32 225.28ZM30.72 107.52C30.7279 104.8 31.8148 102.194 33.7421 100.274C35.6694 98.3541 38.2797 97.2773 41 97.28H102.4C105.116 97.28 107.72 98.3589 109.641 100.279C111.561 102.2 112.64 104.804 112.64 107.52C112.64 110.236 111.561 112.84 109.641 114.761C107.72 116.681 105.116 117.76 102.4 117.76H41C38.2797 117.763 35.6694 116.686 33.7421 114.766C31.8148 112.846 30.7279 110.24 30.72 107.52ZM102.4 169H10.24C7.52418 169 4.9196 167.921 2.99923 166.001C1.07885 164.08 0 161.476 0 158.76C0 156.044 1.07885 153.44 2.99923 151.519C4.9196 149.599 7.52418 148.52 10.24 148.52H102.4C105.116 148.52 107.72 149.599 109.641 151.519C111.561 153.44 112.64 156.044 112.64 158.76C112.64 161.476 111.561 164.08 109.641 166.001C107.72 167.921 105.116 169 102.4 169Z" fill="black"/>
</g>
<defs>
<clipPath id="clip0_145_2">
<rect width="460.8" height="266.24" fill="white"/>
</clipPath>
</defs>
</svg>
