<svg width="500" height="500" viewBox="0 0 500 500" fill="none" xmlns="http://www.w3.org/2000/svg">
<path d="M250 2.32905e-08C234.233 0.0550345 218.836 4.78441 205.756 13.5901C192.676 22.3957 182.502 34.8822 176.519 49.4704C170.535 64.0586 169.013 80.0935 172.143 95.5472C175.273 111.001 182.915 125.18 194.103 136.29C205.291 147.4 219.522 154.944 234.998 157.966C250.473 160.988 266.497 159.353 281.043 153.269C295.589 147.184 308.004 136.923 316.719 123.782C325.433 110.641 330.055 95.2119 330 79.4444C329.853 58.3235 321.36 38.1177 306.373 23.2347C291.386 8.35173 271.121 -0.000509276 250 2.32905e-08Z" fill="black"/>
<path d="M250 340.556C234.233 340.611 218.836 345.34 205.756 354.146C192.676 362.951 182.502 375.438 176.519 390.026C170.535 404.614 169.013 420.649 172.143 436.103C175.273 451.557 182.915 465.735 194.103 476.846C205.291 487.956 219.522 495.499 234.998 498.521C250.473 501.544 266.497 499.909 281.043 493.824C295.589 487.74 308.004 477.478 316.719 464.338C325.433 451.197 330.055 435.767 330 420C329.853 398.879 321.36 378.673 306.373 363.79C291.386 348.907 271.121 340.555 250 340.556Z" fill="black"/>
<path d="M80 340.556C64.2326 340.611 48.8356 345.34 35.756 354.146C22.6764 362.951 12.5017 375.438 6.51861 390.026C0.535479 404.614 -0.987385 420.649 2.14259 436.103C5.27257 451.557 12.9148 465.735 24.1029 476.846C35.291 487.956 49.5225 495.499 64.9977 498.521C80.4728 501.544 96.4967 499.909 111.043 493.824C125.589 487.74 138.004 477.478 146.719 464.338C155.433 451.197 160.055 435.767 160 420C159.986 409.524 157.902 399.155 153.87 389.487C149.838 379.818 143.936 371.041 136.502 363.66C129.069 356.278 120.252 350.438 110.555 346.473C100.859 342.508 90.4754 340.497 80 340.556Z" fill="black"/>
<path d="M420 340.556C404.233 340.611 388.836 345.34 375.756 354.146C362.676 362.951 352.502 375.438 346.519 390.026C340.535 404.614 339.013 420.649 342.143 436.103C345.273 451.557 352.915 465.735 364.103 476.846C375.291 487.956 389.522 495.499 404.998 498.521C420.473 501.544 436.497 499.909 451.043 493.824C465.589 487.74 478.004 477.478 486.719 464.338C495.433 451.197 500.055 435.767 500 420C500.03 409.512 497.977 399.122 493.96 389.434C489.944 379.745 484.043 370.951 476.601 363.561C469.159 356.17 460.324 350.331 450.608 346.382C440.891 342.433 430.488 340.453 420 340.556Z" fill="black"/>
<path d="M250 363.889C248.457 363.927 246.923 363.651 245.491 363.078C244.058 362.506 242.757 361.648 241.666 360.557C240.575 359.466 239.717 358.164 239.144 356.732C238.571 355.299 238.295 353.765 238.333 352.222V147.778C238.333 144.684 239.562 141.716 241.75 139.528C243.938 137.34 246.906 136.111 250 136.111C253.094 136.111 256.062 137.34 258.25 139.528C260.437 141.716 261.667 144.684 261.667 147.778V352.222C261.705 353.765 261.429 355.299 260.856 356.732C260.283 358.164 259.425 359.466 258.334 360.557C257.243 361.648 255.942 362.506 254.509 363.078C253.077 363.651 251.542 363.927 250 363.889Z" fill="black"/>
<path d="M420 364.444C418.457 364.483 416.923 364.207 415.491 363.634C414.058 363.061 412.757 362.203 411.666 361.112C410.575 360.021 409.717 358.72 409.144 357.287C408.571 355.854 408.295 354.32 408.333 352.778V233.889H91.6666V352.222C91.6666 355.316 90.4375 358.284 88.2496 360.472C86.0616 362.66 83.0942 363.889 80 363.889C76.9058 363.889 73.9383 362.66 71.7504 360.472C69.5625 358.284 68.3333 355.316 68.3333 352.222V222.222C68.2952 220.68 68.5709 219.146 69.1437 217.713C69.7166 216.28 70.5745 214.979 71.6656 213.888C72.7566 212.797 74.058 211.939 75.4906 211.366C76.9233 210.793 78.4575 210.517 80 210.556H420.556C422.098 210.517 423.632 210.793 425.065 211.366C426.498 211.939 427.799 212.797 428.89 213.888C429.981 214.979 430.839 216.28 431.412 217.713C431.985 219.146 432.26 220.68 432.222 222.222V352.778C432.079 355.922 430.729 358.89 428.452 361.063C426.175 363.237 423.148 364.448 420 364.444Z" fill="black"/>
</svg>
