<svg width="500" height="500" viewBox="0 0 500 500" fill="none" xmlns="http://www.w3.org/2000/svg">
<g clip-path="url(#clip0_95_221)">
<path d="M71.4286 0C57.3014 0 43.4914 4.18921 31.745 12.0379C19.9986 19.8866 10.8435 31.0422 5.43721 44.094C0.0309486 57.1459 -1.38358 71.5078 1.37251 85.3636C4.1286 99.2194 10.9315 111.947 20.921 121.936C30.9104 131.926 43.6378 138.729 57.4936 141.485C71.3494 144.241 85.7113 142.826 98.7631 137.42C111.815 132.014 122.971 122.859 130.819 111.112C138.668 99.3658 142.857 85.5558 142.857 71.4286C142.837 52.4909 135.304 34.3348 121.913 20.9438C108.522 7.55281 90.3663 0.0206792 71.4286 0ZM71.4286 107.143C64.365 107.143 57.46 105.048 51.5868 101.124C45.7136 97.1996 41.136 91.6218 38.4329 85.0958C35.7298 78.5699 35.0225 71.389 36.4006 64.4611C37.7786 57.5332 41.1801 51.1695 46.1748 46.1748C51.1695 41.18 57.5332 37.7786 64.4611 36.4005C71.389 35.0225 78.5699 35.7297 85.0959 38.4329C91.6218 41.136 97.1996 45.7136 101.124 51.5868C105.048 57.46 107.143 64.365 107.143 71.4286C107.143 80.9006 103.38 89.9847 96.6824 96.6824C89.9847 103.38 80.9006 107.143 71.4286 107.143ZM178.571 71.4286C178.571 66.6926 180.453 62.1505 183.802 58.8017C187.151 55.4528 191.693 53.5714 196.429 53.5714H482.143C486.879 53.5714 491.421 55.4528 494.77 58.8017C498.119 62.1505 500 66.6926 500 71.4286C500 76.1646 498.119 80.7066 494.77 84.0555C491.421 87.4043 486.879 89.2857 482.143 89.2857H196.429C191.693 89.2857 187.151 87.4043 183.802 84.0555C180.453 80.7066 178.571 76.1646 178.571 71.4286ZM71.4286 178.571C57.3014 178.571 43.4914 182.761 31.745 190.609C19.9986 198.458 10.8435 209.614 5.43721 222.665C0.0309486 235.717 -1.38358 250.079 1.37251 263.935C4.1286 277.791 10.9315 290.518 20.921 300.508C30.9104 310.497 43.6378 317.3 57.4936 320.056C71.3494 322.812 85.7113 321.398 98.7631 315.991C111.815 310.585 122.971 301.43 130.819 289.684C138.668 277.937 142.857 264.127 142.857 250C142.837 231.062 135.304 212.906 121.913 199.515C108.522 186.124 90.3663 178.592 71.4286 178.571ZM71.4286 285.714C64.365 285.714 57.46 283.62 51.5868 279.695C45.7136 275.771 41.136 270.193 38.4329 263.667C35.7298 257.141 35.0225 249.96 36.4006 243.033C37.7786 236.105 41.1801 229.741 46.1748 224.746C51.1695 219.751 57.5332 216.35 64.4611 214.972C71.389 213.594 78.5699 214.301 85.0959 217.004C91.6218 219.707 97.1996 224.285 101.124 230.158C105.048 236.031 107.143 242.936 107.143 250C107.143 259.472 103.38 268.556 96.6824 275.254C89.9847 281.952 80.9006 285.714 71.4286 285.714ZM500 250C500 254.736 498.119 259.278 494.77 262.627C491.421 265.976 486.879 267.857 482.143 267.857H196.429C191.693 267.857 187.151 265.976 183.802 262.627C180.453 259.278 178.571 254.736 178.571 250C178.571 245.264 180.453 240.722 183.802 237.373C187.151 234.024 191.693 232.143 196.429 232.143H482.143C486.879 232.143 491.421 234.024 494.77 237.373C498.119 240.722 500 245.264 500 250ZM71.4286 357.143C57.3014 357.143 43.4914 361.332 31.745 369.181C19.9986 377.029 10.8435 388.185 5.43721 401.237C0.0309486 414.289 -1.38358 428.651 1.37251 442.506C4.1286 456.362 10.9315 469.09 20.921 479.079C30.9104 489.069 43.6378 495.871 57.4936 498.628C71.3494 501.384 85.7113 499.969 98.7631 494.563C111.815 489.157 122.971 480.001 130.819 468.255C138.668 456.509 142.857 442.699 142.857 428.571C142.837 409.634 135.304 391.478 121.913 378.087C108.522 364.696 90.3663 357.164 71.4286 357.143ZM71.4286 464.286C64.365 464.286 57.46 462.191 51.5868 458.267C45.7136 454.342 41.136 448.765 38.4329 442.239C35.7298 435.713 35.0225 428.532 36.4006 421.604C37.7786 414.676 41.1801 408.312 46.1748 403.318C51.1695 398.323 57.5332 394.921 64.4611 393.543C71.389 392.165 78.5699 392.873 85.0959 395.576C91.6218 398.279 97.1996 402.856 101.124 408.73C105.048 414.603 107.143 421.508 107.143 428.571C107.143 438.043 103.38 447.128 96.6824 453.825C89.9847 460.523 80.9006 464.286 71.4286 464.286ZM500 428.571C500 433.307 498.119 437.849 494.77 441.198C491.421 444.547 486.879 446.429 482.143 446.429H196.429C191.693 446.429 187.151 444.547 183.802 441.198C180.453 437.849 178.571 433.307 178.571 428.571C178.571 423.835 180.453 419.293 183.802 415.945C187.151 412.596 191.693 410.714 196.429 410.714H482.143C486.879 410.714 491.421 412.596 494.77 415.945C498.119 419.293 500 423.835 500 428.571Z" fill="black"/>
</g>
<defs>
<clipPath id="clip0_95_221">
<rect width="500" height="500" fill="white"/>
</clipPath>
</defs>
</svg>
