<svg width="512" height="512" viewBox="0 0 512 512" fill="none" xmlns="http://www.w3.org/2000/svg">
<g clip-path="url(#clip0_138_13)">
<path d="M437.02 74.9805C388.668 26.6289 324.379 0 256 0C187.621 0 123.332 26.6289 74.9805 74.9805C26.6289 123.332 0 187.621 0 256C0 324.379 26.6289 388.668 74.9805 437.02C123.332 485.371 187.621 512 256 512C324.379 512 388.668 485.371 437.02 437.02C485.371 388.668 512 324.379 512 256C512 187.621 485.371 123.332 437.02 74.9805ZM111.105 429.297C119.559 356.562 182.094 300.406 256 300.406C294.961 300.406 331.598 315.586 359.156 343.141C382.438 366.426 397.121 396.828 400.898 429.293C361.641 462.172 311.094 482 256 482C200.906 482 150.363 462.176 111.105 429.297ZM256 269.508C213.129 269.508 178.246 234.625 178.246 191.754C178.246 148.879 213.129 114 256 114C298.871 114 333.754 148.879 333.754 191.754C333.754 234.625 298.871 269.508 256 269.508ZM426.719 403.934C419.074 373.113 403.133 344.695 380.367 321.93C361.93 303.492 340.117 289.66 316.328 280.992C344.926 261.598 363.754 228.832 363.754 191.754C363.754 132.34 315.414 84 256 84C196.586 84 148.246 132.34 148.246 191.754C148.246 228.852 167.09 261.629 195.711 281.02C173.824 288.996 153.57 301.328 136.145 317.562C110.91 341.062 93.3867 371.027 85.2617 403.91C50.8516 364.242 30 312.512 30 256C30 131.383 131.383 30 256 30C380.617 30 482 131.383 482 256C482 312.523 461.141 364.266 426.719 403.934Z" fill="black"/>
</g>
<defs>
<clipPath id="clip0_138_13">
<rect width="512" height="512" fill="white"/>
</clipPath>
</defs>
</svg>
