<svg width="528" height="500" viewBox="0 0 528 500" fill="none" xmlns="http://www.w3.org/2000/svg">
<g clip-path="url(#clip0_121_20)">
<path d="M156.1 290.382H0V500H156.1V290.382Z" fill="black"/>
<path d="M527.793 236.518H371.693V499.989H527.793V236.518Z" fill="black"/>
<path d="M341.978 158.358H185.836V499.99H341.978V158.358Z" fill="black"/>
<path d="M450.934 77.6984L473.047 122.543L522.554 129.746L486.77 164.658L495.17 214.007L450.934 190.676L406.688 213.965L415.088 164.616L379.305 129.714L428.769 122.512L450.934 77.6984Z" fill="black"/>
<path d="M264.742 0L286.875 44.8656L336.382 52.0685L300.598 86.9908L308.998 136.256L264.721 112.999L220.496 136.256L228.895 86.9908L193.123 52.0685L242.619 44.8656L264.742 0Z" fill="black"/>
<path d="M75.3255 130.008L97.438 174.874L146.997 182.098L111.235 216.978L119.635 266.264L75.3255 242.997L31.0479 266.285L39.4477 216.999L3.71692 182.119L53.2024 174.895L75.3255 130.008Z" fill="black"/>
</g>
<defs>
<clipPath id="clip0_121_20">
<rect width="527.782" height="500" fill="white"/>
</clipPath>
</defs>
</svg>
