<svg width="314" height="200" viewBox="0 0 314 200" fill="none" xmlns="http://www.w3.org/2000/svg">
<path d="M311.799 93.8966C308.996 90.0619 242.202 0 156.895 0C71.5879 0 4.79148 90.0619 1.99124 93.893C-0.663747 97.531 -0.663747 102.465 1.99124 106.103C4.79148 109.938 71.5879 200 156.895 200C242.202 200 308.996 109.938 311.799 106.106C314.457 102.469 314.457 97.531 311.799 93.8966ZM156.895 179.31C94.0572 179.31 39.633 119.535 23.5223 99.993C39.6122 80.4342 93.9224 20.6896 156.895 20.6896C219.73 20.6896 274.15 80.455 290.268 100.007C274.178 119.565 219.868 179.31 156.895 179.31Z" fill="black"/>
<path d="M156.895 37.9311C122.671 37.9311 94.8258 65.776 94.8258 100C94.8258 134.225 122.671 162.07 156.895 162.07C191.119 162.07 218.964 134.225 218.964 100C218.964 65.776 191.119 37.9311 156.895 37.9311ZM156.895 141.379C134.078 141.379 115.516 122.817 115.516 100C115.516 77.1835 134.078 58.6212 156.895 58.6212C179.712 58.6212 198.274 77.1835 198.274 100C198.274 122.817 179.713 141.379 156.895 141.379Z" fill="black"/>
</svg>
