<svg width="500" height="500" viewBox="0 0 500 500" fill="none" xmlns="http://www.w3.org/2000/svg">
<g clip-path="url(#clip0_95_59)">
<path d="M131.836 0H14.6484C10.7634 0 7.03754 1.54331 4.29043 4.29043C1.54331 7.03754 0 10.7634 0 14.6484L0 131.836C0 135.721 1.54331 139.447 4.29043 142.194C7.03754 144.941 10.7634 146.484 14.6484 146.484H131.836C135.721 146.484 139.447 144.941 142.194 142.194C144.941 139.447 146.484 135.721 146.484 131.836V14.6484C146.484 10.7634 144.941 7.03754 142.194 4.29043C139.447 1.54331 135.721 0 131.836 0Z" fill="black"/>
<path d="M192.383 87.8906H485.352C489.237 87.8906 492.962 86.3473 495.71 83.6002C498.457 80.8531 500 77.1272 500 73.2422C500 69.3572 498.457 65.6313 495.71 62.8842C492.962 60.1371 489.237 58.5938 485.352 58.5938H192.383C188.498 58.5938 184.772 60.1371 182.025 62.8842C179.278 65.6313 177.734 69.3572 177.734 73.2422C177.734 77.1272 179.278 80.8531 182.025 83.6002C184.772 86.3473 188.498 87.8906 192.383 87.8906Z" fill="black"/>
<path d="M131.836 176.758H14.6484C10.7634 176.758 7.03754 178.301 4.29043 181.048C1.54331 183.795 0 187.521 0 191.406L0 308.594C0 312.479 1.54331 316.205 4.29043 318.952C7.03754 321.699 10.7634 323.242 14.6484 323.242H131.836C135.721 323.242 139.447 321.699 142.194 318.952C144.941 316.205 146.484 312.479 146.484 308.594V191.406C146.484 187.521 144.941 183.795 142.194 181.048C139.447 178.301 135.721 176.758 131.836 176.758Z" fill="black"/>
<path d="M131.836 353.516H14.6484C10.7634 353.516 7.03754 355.059 4.29043 357.806C1.54331 360.553 0 364.279 0 368.164L0 485.352C0 489.237 1.54331 492.962 4.29043 495.71C7.03754 498.457 10.7634 500 14.6484 500H131.836C135.721 500 139.447 498.457 142.194 495.71C144.941 492.962 146.484 489.237 146.484 485.352V368.164C146.484 364.279 144.941 360.553 142.194 357.806C139.447 355.059 135.721 353.516 131.836 353.516Z" fill="black"/>
<path d="M485.352 117.188H192.383C188.498 117.188 184.772 118.731 182.025 121.478C179.278 124.225 177.734 127.951 177.734 131.836C177.734 135.721 179.278 139.447 182.025 142.194C184.772 144.941 188.498 146.484 192.383 146.484H485.352C489.237 146.484 492.962 144.941 495.71 142.194C498.457 139.447 500 135.721 500 131.836C500 127.951 498.457 124.225 495.71 121.478C492.962 118.731 489.237 117.188 485.352 117.188Z" fill="black"/>
<path d="M192.383 29.2969H309.57C313.455 29.2969 317.181 27.7536 319.928 25.0064C322.675 22.2593 324.219 18.5334 324.219 14.6484C324.219 10.7634 322.675 7.03754 319.928 4.29043C317.181 1.54331 313.455 0 309.57 0L192.383 0C188.498 0 184.772 1.54331 182.025 4.29043C179.278 7.03754 177.734 10.7634 177.734 14.6484C177.734 18.5334 179.278 22.2593 182.025 25.0064C184.772 27.7536 188.498 29.2969 192.383 29.2969Z" fill="black"/>
<path d="M485.352 293.945H192.383C188.498 293.945 184.772 295.489 182.025 298.236C179.278 300.983 177.734 304.709 177.734 308.594C177.734 312.479 179.278 316.205 182.025 318.952C184.772 321.699 188.498 323.242 192.383 323.242H485.352C489.237 323.242 492.962 321.699 495.71 318.952C498.457 316.205 500 312.479 500 308.594C500 304.709 498.457 300.983 495.71 298.236C492.962 295.489 489.237 293.945 485.352 293.945Z" fill="black"/>
<path d="M485.352 235.352H192.383C188.498 235.352 184.772 236.895 182.025 239.642C179.278 242.389 177.734 246.115 177.734 250C177.734 253.885 179.278 257.611 182.025 260.358C184.772 263.105 188.498 264.648 192.383 264.648H485.352C489.237 264.648 492.962 263.105 495.71 260.358C498.457 257.611 500 253.885 500 250C500 246.115 498.457 242.389 495.71 239.642C492.962 236.895 489.237 235.352 485.352 235.352Z" fill="black"/>
<path d="M192.383 206.055H309.57C313.455 206.055 317.181 204.511 319.928 201.764C322.675 199.017 324.219 195.291 324.219 191.406C324.219 187.521 322.675 183.795 319.928 181.048C317.181 178.301 313.455 176.758 309.57 176.758H192.383C188.498 176.758 184.772 178.301 182.025 181.048C179.278 183.795 177.734 187.521 177.734 191.406C177.734 195.291 179.278 199.017 182.025 201.764C184.772 204.511 188.498 206.055 192.383 206.055Z" fill="black"/>
<path d="M485.352 470.703H192.383C188.498 470.703 184.772 472.246 182.025 474.994C179.278 477.741 177.734 481.467 177.734 485.352C177.734 489.237 179.278 492.962 182.025 495.71C184.772 498.457 188.498 500 192.383 500H485.352C489.237 500 492.962 498.457 495.71 495.71C498.457 492.962 500 489.237 500 485.352C500 481.467 498.457 477.741 495.71 474.994C492.962 472.246 489.237 470.703 485.352 470.703Z" fill="black"/>
<path d="M485.352 412.109H192.383C188.498 412.109 184.772 413.653 182.025 416.4C179.278 419.147 177.734 422.873 177.734 426.758C177.734 430.643 179.278 434.369 182.025 437.116C184.772 439.863 188.498 441.406 192.383 441.406H485.352C489.237 441.406 492.962 439.863 495.71 437.116C498.457 434.369 500 430.643 500 426.758C500 422.873 498.457 419.147 495.71 416.4C492.962 413.653 489.237 412.109 485.352 412.109Z" fill="black"/>
<path d="M192.383 382.812H309.57C313.455 382.812 317.181 381.269 319.928 378.522C322.675 375.775 324.219 372.049 324.219 368.164C324.219 364.279 322.675 360.553 319.928 357.806C317.181 355.059 313.455 353.516 309.57 353.516H192.383C188.498 353.516 184.772 355.059 182.025 357.806C179.278 360.553 177.734 364.279 177.734 368.164C177.734 372.049 179.278 375.775 182.025 378.522C184.772 381.269 188.498 382.812 192.383 382.812Z" fill="black"/>
</g>
<defs>
<clipPath id="clip0_95_59">
<rect width="500" height="500" fill="white"/>
</clipPath>
</defs>
</svg>
